<svg version="1.0" xmlns="http://www.w3.org/2000/svg" viewBox="0 0 200 200" width="200" height="200">
  <path fill="currentColor" d="M53.9 4c-10.1 1.6-21.9 9.4-27.9 18.5-3.1 4.6-6.3 11.7-7.6 16.8-1.4 5.7-1.3 29.2 0.3 36.9 2.8 13.7 9.4 29.1 17.3 40.6 3.6 5.2 12.3 15.2 16.6 19.1 1.4 1.3 3.4 3.1 4.4 4.1 1 1 2.7 2.4 3.7 3.2 22.1 16.6 23.5 19.6 15.4 33.4-4.1 7.1-8.1 11.3-10.6 11.3-2.7 0-10.7 5.2-11.6 7.6-0.4 0.9 0.8 1.1 8.3 0.9 7.6-0.3 9.1-0.5 11.4-1.9 3.6-2.3 6.1-4.9 9.6-10.2 6.4-9.7 7.7-12.9 8.1-18.4 0.3-4.6 0.1-5.6-1.6-8.9-1.1-2.1-2.5-4.4-3.1-5.3-1.4-1.8-7.2-6.9-12.2-10.6-4.9-3.6-17.6-14.6-20.4-17.7-3.9-4.1-11-12.6-11-13.3 0-0.4-0.8-1.6-1.7-2.7-2.1-2.5-8.4-15.1-10.1-19.9-4.6-14.1-6.4-29.5-4.6-41.8 1.8-12.6 8-22.6 17.9-28.4 12.3-7.4 28.2-5.9 39.1 3.6 3.7 3.2 8.4 10.3 9.9 14.9 1.7 5.2 1.6 16-0 21.4-2.6 8.3-9.3 15.6-18.4 19.9-5.1 2.4-5.7 2.6-12.5 2.6-3.9 0-9.7-0.1-12.9-0.4-5.1-0.2-5.9-0.1-8 1.5-2.5 1.8-3 2.9-1.4 2.9 0.5 0 1.4 0.4 1.8 1 0.4 0.6 1.6 1.1 2.4 1.4 0.9 0.2 3.5 0.9 5.9 1.5 8.5 2.1 22.4 1.1 28.8-2.3 1.4-0.7 3.7-1.9 5-2.6 3.8-2 11.9-10.6 14.4-15.3 2.1-4 2.4-4.2 4.1-3.6 9.5 3.6 22.3 15.3 30.7 28.1 2.9 4.5 8.7 15.8 10.6 20.8 0.9 2.5 2.2 5.6 2.7 6.9 0.6 1.2 2.2 5.4 3.7 9.1 1.5 3.7 3.1 7.7 3.6 8.9 0.9 2.1 0.9 2.1-1.3 2.4-3.4 0.4-17.3-1.1-24.1-2.4-6.1-1.2-17.6-5.4-22.6-8.2-9.7-5.4-18.5-13.2-24-21.4-1.2-1.8-3-3.9-3.9-4.7-2.8-2.5-10.1-4.2-10.1-2.4 0 1.3 3.2 7.3 6.9 12.9 8.6 13.1 26.4 25.8 42.1 29.9 1.2 0.3 4.6 1.2 7.5 2 7.2 1.9 13.5 2.8 24.9 3.4l9.6 0.5 1.3 2.9c1.5 3.3 7.1 17.6 9 22.8 0.6 1.9 1 3.6 0.7 3.9-0.7 0.7-9.6-1.8-13.6-3.9-1.9-1-6.6-4.1-10.4-7-10.9-8.4-17.1-11.1-28-12.1l-4.7-0.4-3.2 4.8c-1.7 2.7-4.6 7.1-6.4 9.9-1.8 2.7-4.5 6.9-6 9.3-1.5 2.4-3.1 5.1-3.7 6.1-0.5 1-1.7 2.7-2.6 3.9-0.9 1.1-2.2 3.2-2.9 4.5l-1.2 2.4 3.4-0.5c4.1-0.6 9.3-3.1 11.4-5.5 0.9-1 3.7-5.3 6.4-9.5 8.4-13.6 9.6-15.3 11.4-15.3 2.9 0 11.4 3.2 15.4 5.9 2.1 1.4 5.9 4 8.3 5.7 4.9 3.6 12.8 7.8 17.1 9.1 3.1 1 17.4 1.4 20.5 0.4 2.2-0.6 2.1-1.1-1.4-9.8-1.2-2.9-3.4-8.4-4.8-12.1-1.4-3.7-2.9-7.4-3.1-8.2-0.7-1.5-2.2-5.4-7.6-19.3-1.9-4.7-3.8-9.6-4.3-10.7-0.5-1.2-2.9-7-5.3-13-7.9-19.9-15.1-31.6-25.9-42.4-6.6-6.6-14.1-12.1-20.9-15.1l-4.1-1.9 0.4-4.8c1.7-18.6-10.1-36.9-28.1-43.4-4.2-1.5-6.9-2-12.5-2.1-3.9-0.1-8.1-0.1-9.3 0.1z"/>
  <path fill="currentColor" d="M40.4 36.7c-2.2 2-2.6 2.9-2.6 5.5 0 1.9 0.5 3.8 1.3 4.6 1.5 1.9 5.2 3.9 7.3 3.9 0.8 0 1.4 0.3 1.4 0.7 0 0.4 1 2.8 2.2 5.4 2.1 4.4 9.4 13.2 11 13.2 1.1-0.1 4.8-3.6 6.8-6.4 0.9-1.4 1.9-2.6 2.1-2.9 0.7-0.7 2.7-4.7 3.5-7.4 0.6-1.8 1.3-2.6 2.2-2.6 0.8 0 2.5-0.6 3.9-1.2 5.1-2.4 6.1-9.4 1.9-13.3-3.1-2.8-6.8-2.6-10.3 0.4-2.5 2.2-2.6 2.7-3.2 8-0.5 4.3-1.3 6.9-3.3 10.9-1.5 2.9-2.9 5.2-3.3 5.2-2.4 0-6.8-10.6-7.6-18.1-0.4-3.5-0.8-4.4-2.9-6.2-3.4-3.1-7.1-3-10.5 0.3z"/>
</svg>
